<?xml version="1.0" encoding="UTF-8"?>
<svg xmlns="http://www.w3.org/2000/svg" xmlns:xlink="http://www.w3.org/1999/xlink" version="1.1" id="Layer_1" x="0px" y="0px" width="100%" viewBox="0 0 1054 649" enable-background="new 0 0 1054 649" xml:space="preserve" style="background: transparent;">

<path fill="#99F6E4" opacity="1.000000" stroke="none" d=" M1.000000,291.458069   C1.333333,288.618744 1.894460,286.244263 1.965741,283.855194   C2.991736,249.467422 10.164774,216.437347 23.105104,184.552078   C32.772995,160.730179 45.682384,138.808380 61.341805,118.571404   C74.238121,101.905228 88.785034,86.748672 105.068657,73.185181   C124.777481,56.768658 145.912766,42.703476 168.970245,31.557163   C193.219025,19.834965 218.598434,11.340052 245.217529,7.147583   C258.564087,5.045527 272.104126,3.811226 285.604034,3.145024   C299.139282,2.477078 312.851288,1.875840 326.273987,3.276120   C345.750885,5.307987 365.183685,8.453893 384.371460,12.405733   C414.052795,18.518784 441.999573,29.773882 468.734619,43.961704   C476.328949,47.991882 483.562134,52.697895 491.029358,56.974548   C493.792389,58.556999 494.330322,60.278938 492.487030,62.958443   C475.235931,88.035431 458.029572,113.143211 440.797974,138.233643   C440.625183,138.485199 440.287598,138.623550 439.626282,139.108688   C434.560333,136.147095 429.351227,133.039337 424.084137,130.033279   C399.310669,115.894485 372.927094,105.960396 345.015045,100.171555   C327.347961,96.507484 309.331848,95.827980 291.498840,97.219337   C259.619781,99.706589 230.109787,110.015182 203.431137,127.838699   C172.451752,148.535461 148.491302,175.510193 132.483032,209.203110   C123.062172,229.031387 117.007591,249.956665 114.997856,271.913055   C114.184364,280.800537 112.880051,289.737762 113.148651,298.611511   C113.894806,323.262390 118.863503,347.065887 128.859879,369.781830   C140.477371,396.181610 157.373505,418.759460 178.623077,437.945648   C203.336304,460.259155 232.245850,474.635101 265.051331,481.071167   C281.063049,484.212494 297.202179,485.834686 313.451874,484.902832   C334.679413,483.685547 355.264099,479.368561 375.024292,471.087189   C395.346161,462.570496 412.561768,449.853729 426.904663,433.414520   C439.963287,418.447357 449.597565,401.369781 455.221191,381.257935   C394.391083,381.257935 334.066589,381.257935 273.372864,381.257935   C273.372864,348.640106 273.372864,316.739105 273.372864,284.418335   C378.714600,284.418335 484.058899,284.418335 589.701782,284.418335   C589.701782,380.505005 589.701782,476.399017 589.701782,572.646606   C559.267151,572.646606 529.032776,572.646606 498.265564,572.646606   C498.265564,549.708618 498.265564,526.816101 498.265564,502.489349   C496.034943,504.599701 494.725250,505.718475 493.552582,506.966064   C472.710083,529.140076 448.039124,546.003418 420.531250,558.656860   C398.229980,568.915222 374.800446,575.621948 350.624329,580.212097   C324.991028,585.079041 299.170380,585.988831 273.355865,584.753723   C249.613312,583.617676 226.232056,579.233826 203.404053,572.064758   C175.517303,563.307068 149.582382,550.739075 125.489960,534.248352   C108.875381,522.876038 93.489029,509.984680 79.891182,495.204376   C62.483738,476.283264 47.472668,455.588013 35.242741,432.811646   C21.338549,406.917175 11.543229,379.601074 6.363508,350.831818   C3.506834,334.965240 3.139648,318.650482 1.325075,302.268860   C1.000000,298.638702 1.000000,295.277435 1.000000,291.458069  z"/>
<path fill="#99F6E4" opacity="1.000000" stroke="none" d=" M736.531372,1.000001   C741.332153,1.656381 745.646729,2.475998 749.999207,2.943121   C782.633606,6.445605 813.836243,15.108006 843.851501,28.354952   C868.717224,39.329212 891.422424,53.596786 912.455811,70.812424   C942.142883,95.111122 965.072937,124.733345 983.603271,158.087036   C997.856750,183.742508 1008.201111,210.878586 1014.536316,239.458603   C1017.169250,251.336670 1018.658936,263.518433 1019.898315,275.640808   C1021.109436,287.487762 1022.416992,299.496033 1021.747498,311.323975   C1020.742188,329.082855 1018.676392,346.844025 1015.933655,364.428314   C1011.203735,394.752747 1000.882812,423.331635 986.715149,450.529816   C986.567749,450.812744 986.280945,451.023010 985.783386,451.570953   C985.054688,451.297180 984.052734,451.149200 983.334534,450.617828   C957.292297,431.349304 931.281067,412.038849 905.252563,392.751770   C900.739624,389.407745 896.198608,386.099487 891.611023,382.858978   C889.580261,381.424500 888.963745,380.126923 890.090820,377.506531   C897.709900,359.792236 902.849854,341.252930 904.811829,322.152222   C909.302917,278.427826 904.512329,235.983353 882.738159,196.939240   C876.263428,185.329117 867.889954,174.662827 859.549622,164.233200   C844.270264,145.126175 824.486755,131.541367 802.670898,120.962769   C785.029236,112.408310 766.355591,107.002296 746.946167,103.873802   C731.311340,101.353722 715.579895,99.965851 699.888428,101.198196   C680.725159,102.703194 662.116455,107.406181 644.305847,114.884659   C624.303223,123.283577 605.977783,134.238708 589.617126,148.687714   C573.260376,163.133286 560.378845,180.123077 549.544678,198.881256   C540.633179,214.310394 533.752136,230.571457 528.939514,247.720367   C528.267944,250.113525 527.741028,252.124298 524.162964,252.103546   C492.831390,251.921692 461.498383,251.997482 430.165771,251.983322   C429.358063,251.982956 428.550415,251.828369 426.630249,251.631866   C427.519379,244.497620 428.120758,237.509857 429.296112,230.620026   C434.068451,202.645599 443.371765,176.220840 456.893066,151.272629   C465.831390,134.780441 476.016144,119.129593 488.480804,105.067337   C495.852203,96.751091 503.092621,88.256691 511.094849,80.574554   C527.741455,64.593788 546.090637,50.789131 566.201660,39.338696   C590.846497,25.306852 616.885254,14.752008 644.588501,8.865043   C660.031006,5.583493 675.833435,3.995794 691.736816,1.322379   C706.687561,1.000000 721.375122,1.000000 736.531372,1.000001  z"/>
<path fill="#ECFEFF" opacity="1.000000" stroke="none" d=" M75.468658,650.000000   C75.000473,642.669434 75.107857,635.336548 74.949806,628.009399   C74.884850,624.997559 75.870514,623.641724 78.953995,623.980896   C80.106224,624.107605 81.284180,624.000061 82.450409,624.000061   C381.837524,624.000000 681.224609,623.998169 980.611755,624.009583   C988.931519,624.009949 987.935730,623.113647 987.992493,631.569336   C988.031616,637.400269 988.000000,643.231567 988.000000,649.531372   C683.979126,650.000000 379.958221,650.000000 75.468658,650.000000  z"/>
<path fill="#A3E635" opacity="1.000000" stroke="none" d=" M1055.000000,539.750000   C1035.710938,547.974609 1016.441650,555.997375 997.127014,563.909546   C979.927002,570.955505 962.647583,577.808228 945.476440,584.923157   C942.480225,586.164673 940.662537,585.744507 938.023926,583.740356   C918.759705,569.107727 899.274048,554.766663 879.873840,540.312683   C879.083130,539.723633 878.447510,538.926453 877.278198,537.774536   C869.251526,531.570190 861.686279,525.817566 854.293274,520.195923   C876.571106,506.345306 898.595398,492.722382 920.540894,478.973602   C929.214233,473.539795 937.712158,467.825775 946.289917,462.239380   C952.856079,466.667389 959.539001,470.932922 965.967834,475.552032   C991.282837,493.740631 1016.505798,512.057190 1041.794922,530.281860   C1045.891479,533.234009 1050.150513,535.960693 1054.667236,538.895752   C1055.000000,539.000000 1055.000000,539.500000 1055.000000,539.750000  z"/>
<path fill="#99F6E4" opacity="1.000000" stroke="none" d=" M946.078735,461.940155   C937.712158,467.825775 929.214233,473.539795 920.540894,478.973602   C898.595398,492.722382 876.571106,506.345306 854.293274,520.195923   C861.686279,525.817566 869.251526,531.570190 876.977661,537.625061   C868.700806,543.971375 860.687317,550.750427 851.741211,555.913757   C830.065796,568.423828 806.678406,576.477722 782.016479,581.059448   C762.822510,584.625244 743.469727,586.178894 724.111572,584.829956   C691.337158,582.546082 658.567932,579.586609 627.322571,568.160706   C625.150391,567.366333 622.822144,566.679260 621.001831,565.347412   C619.638672,564.349976 618.134888,562.399719 618.126282,560.865662   C617.964417,532.034668 618.014038,503.202515 618.040955,474.370636   C618.041565,473.740784 618.293701,473.111237 618.679504,471.308472   C669.260803,485.645691 719.879333,490.739624 771.497986,471.756500   C739.526123,445.331726 708.172913,419.418243 676.117249,392.924194   C683.472595,388.699463 689.987366,384.918274 696.538696,381.201538   C721.026489,367.309113 745.502136,353.394470 770.085144,339.672333   C771.476929,338.895477 774.288269,339.053070 775.595215,339.973572   C796.405457,354.630676 817.091187,369.464966 837.777832,384.297211   C854.571411,396.338074 871.302429,408.466217 888.108337,420.489868   C907.334229,434.244873 926.612183,447.927124 946.078735,461.940155  z"/>
</svg>